<mxfile host="app.diagrams.net" modified="2023-04-23T04:46:59.786Z" agent="Mozilla/5.0 (Windows NT 10.0; Win64; x64; rv:109.0) Gecko/20100101 Firefox/112.0" etag="b9XnYppz3CTSRJN8dXNq" version="21.2.1" type="device">
  <diagram name="Page-1" id="13e1069c-82ec-6db2-03f1-153e76fe0fe0">
    <mxGraphModel dx="1264" dy="787" grid="1" gridSize="10" guides="1" tooltips="1" connect="1" arrows="1" fold="1" page="1" pageScale="1" pageWidth="1100" pageHeight="850" background="none" math="0" shadow="0">
      <root>
        <mxCell id="0" />
        <mxCell id="1" parent="0" />
        <mxCell id="7baba1c4bc27f4b0-2" value=":Water" style="shape=umlLifeline;perimeter=lifelinePerimeter;whiteSpace=wrap;html=1;container=0;collapsible=0;recursiveResize=0;outlineConnect=0;rounded=1;shadow=0;comic=0;labelBackgroundColor=none;strokeWidth=1;fontFamily=Helvetica;fontSize=12;align=center;size=40;movable=1;resizable=1;rotatable=1;deletable=1;editable=1;locked=0;connectable=1;" parent="1" vertex="1">
          <mxGeometry x="400" y="80" width="100" height="830" as="geometry" />
        </mxCell>
        <mxCell id="7baba1c4bc27f4b0-3" value=":GiantCrab" style="shape=umlLifeline;perimeter=lifelinePerimeter;whiteSpace=wrap;html=1;container=1;collapsible=0;recursiveResize=0;outlineConnect=0;rounded=1;shadow=0;comic=0;labelBackgroundColor=none;strokeWidth=1;fontFamily=Helvetica;fontSize=12;align=center;" parent="1" vertex="1">
          <mxGeometry x="553" y="550" width="100" height="360" as="geometry" />
        </mxCell>
        <mxCell id="7baba1c4bc27f4b0-8" value=":Location" style="shape=umlLifeline;perimeter=lifelinePerimeter;whiteSpace=wrap;html=1;container=1;collapsible=0;recursiveResize=0;outlineConnect=0;rounded=1;shadow=0;comic=0;labelBackgroundColor=none;strokeWidth=1;fontFamily=Helvetica;fontSize=12;align=center;" parent="1" vertex="1">
          <mxGeometry x="100" y="80" width="100" height="830" as="geometry" />
        </mxCell>
        <mxCell id="7baba1c4bc27f4b0-9" value="" style="html=1;points=[];perimeter=orthogonalPerimeter;rounded=0;shadow=0;comic=0;labelBackgroundColor=none;strokeWidth=1;fontFamily=Helvetica;fontSize=12;align=center;" parent="7baba1c4bc27f4b0-8" vertex="1">
          <mxGeometry x="45" y="100" width="10" height="610" as="geometry" />
        </mxCell>
        <mxCell id="7baba1c4bc27f4b0-11" value="tick(this)" style="html=1;verticalAlign=bottom;endArrow=block;entryX=0;entryY=0;labelBackgroundColor=none;fontFamily=Helvetica;fontSize=12;edgeStyle=elbowEdgeStyle;elbow=vertical;" parent="1" source="7baba1c4bc27f4b0-9" target="7baba1c4bc27f4b0-10" edge="1">
          <mxGeometry relative="1" as="geometry">
            <mxPoint x="220" y="190" as="sourcePoint" />
            <mxPoint as="offset" />
          </mxGeometry>
        </mxCell>
        <mxCell id="DH6IuwQM_21PFYgnU8KK-26" value=":GiantCrayfish" style="shape=umlLifeline;perimeter=lifelinePerimeter;whiteSpace=wrap;html=1;container=1;collapsible=0;recursiveResize=0;outlineConnect=0;rounded=1;shadow=0;comic=0;labelBackgroundColor=none;strokeWidth=1;fontFamily=Helvetica;fontSize=12;align=center;" parent="1" vertex="1">
          <mxGeometry x="690" y="740" width="100" height="170" as="geometry" />
        </mxCell>
        <mxCell id="zdNvGmMRSBU-zcqmcYvB-2" value="containsAnActor()" style="html=1;verticalAlign=bottom;endArrow=none;labelBackgroundColor=none;fontFamily=Helvetica;fontSize=12;edgeStyle=elbowEdgeStyle;elbow=vertical;startArrow=classic;startFill=1;endFill=0;" edge="1" parent="1" source="7baba1c4bc27f4b0-9" target="7baba1c4bc27f4b0-10">
          <mxGeometry relative="1" as="geometry">
            <mxPoint x="160" y="190" as="sourcePoint" />
            <mxPoint as="offset" />
            <mxPoint x="455" y="190" as="targetPoint" />
            <Array as="points">
              <mxPoint x="350" y="270" />
            </Array>
          </mxGeometry>
        </mxCell>
        <mxCell id="7baba1c4bc27f4b0-10" value="" style="html=1;points=[];perimeter=orthogonalPerimeter;rounded=0;shadow=0;comic=0;labelBackgroundColor=none;strokeWidth=1;fontFamily=Helvetica;fontSize=12;align=center;" parent="1" vertex="1">
          <mxGeometry x="445" y="180" width="10" height="620" as="geometry" />
        </mxCell>
        <mxCell id="DH6IuwQM_21PFYgnU8KK-13" value="Opt" style="shape=umlFrame;whiteSpace=wrap;html=1;pointerEvents=0;width=50;height=20;fontFamily=Helvetica;movable=1;resizable=1;rotatable=1;deletable=1;editable=1;locked=0;connectable=1;" parent="1" vertex="1">
          <mxGeometry x="258" y="320" width="582" height="550" as="geometry" />
        </mxCell>
        <mxCell id="DH6IuwQM_21PFYgnU8KK-14" value="&lt;div&gt;[if the location doesn&#39;t &lt;br&gt;&lt;/div&gt;&lt;div&gt;have an actor]&lt;br&gt;&lt;/div&gt;" style="text;html=1;align=center;verticalAlign=middle;resizable=0;points=[];autosize=1;strokeColor=none;fillColor=none;fontFamily=Helvetica;" parent="1" vertex="1">
          <mxGeometry x="250" y="345" width="140" height="40" as="geometry" />
        </mxCell>
        <mxCell id="zdNvGmMRSBU-zcqmcYvB-9" value="boolean" style="html=1;verticalAlign=bottom;endArrow=open;dashed=1;endSize=8;labelBackgroundColor=none;fontFamily=Helvetica;fontSize=12;edgeStyle=elbowEdgeStyle;elbow=vertical;" edge="1" parent="1" source="7baba1c4bc27f4b0-9" target="7baba1c4bc27f4b0-10">
          <mxGeometry x="-0.0612" relative="1" as="geometry">
            <mxPoint x="230" y="319.99999999999994" as="targetPoint" />
            <Array as="points">
              <mxPoint x="340" y="300" />
              <mxPoint x="394" y="320.21" />
            </Array>
            <mxPoint x="150" y="300" as="sourcePoint" />
            <mxPoint as="offset" />
          </mxGeometry>
        </mxCell>
        <mxCell id="zdNvGmMRSBU-zcqmcYvB-11" value="x()" style="html=1;verticalAlign=bottom;endArrow=none;labelBackgroundColor=none;fontFamily=Helvetica;fontSize=12;edgeStyle=elbowEdgeStyle;elbow=vertical;startArrow=classic;startFill=1;endFill=0;" edge="1" parent="1" source="7baba1c4bc27f4b0-9" target="7baba1c4bc27f4b0-10">
          <mxGeometry relative="1" as="geometry">
            <mxPoint x="155" y="400" as="sourcePoint" />
            <mxPoint as="offset" />
            <mxPoint x="445" y="400" as="targetPoint" />
            <Array as="points">
              <mxPoint x="350" y="400" />
            </Array>
          </mxGeometry>
        </mxCell>
        <mxCell id="zdNvGmMRSBU-zcqmcYvB-26" value="" style="rounded=0;orthogonalLoop=1;jettySize=auto;html=1;entryX=1;entryY=0.503;entryDx=0;entryDy=0;entryPerimeter=0;exitX=0.002;exitY=0.498;exitDx=0;exitDy=0;exitPerimeter=0;dashed=1;endArrow=none;endFill=0;fontFamily=Helvetica;" edge="1" parent="1" source="zdNvGmMRSBU-zcqmcYvB-12" target="zdNvGmMRSBU-zcqmcYvB-12">
          <mxGeometry relative="1" as="geometry">
            <mxPoint x="268.004" y="641.0790000000001" as="sourcePoint" />
            <mxPoint x="829.4419999999999" y="640.0020000000001" as="targetPoint" />
          </mxGeometry>
        </mxCell>
        <mxCell id="zdNvGmMRSBU-zcqmcYvB-12" value="Alternative" style="shape=umlFrame;whiteSpace=wrap;html=1;pointerEvents=0;width=72;height=20;fontFamily=Helvetica;movable=1;resizable=1;rotatable=1;deletable=1;editable=1;locked=0;connectable=1;" vertex="1" parent="1">
          <mxGeometry x="268" y="441" width="562" height="399" as="geometry" />
        </mxCell>
        <mxCell id="zdNvGmMRSBU-zcqmcYvB-14" value="&lt;div&gt;[location is in west side of map]&lt;br&gt;&lt;/div&gt;" style="text;html=1;align=center;verticalAlign=middle;resizable=0;points=[];autosize=1;strokeColor=none;fillColor=none;fontFamily=Helvetica;" vertex="1" parent="1">
          <mxGeometry x="258" y="460" width="190" height="30" as="geometry" />
        </mxCell>
        <mxCell id="zdNvGmMRSBU-zcqmcYvB-15" value="x" style="html=1;verticalAlign=bottom;endArrow=open;dashed=1;endSize=8;labelBackgroundColor=none;fontFamily=Helvetica;fontSize=12;edgeStyle=elbowEdgeStyle;elbow=vertical;" edge="1" parent="1">
          <mxGeometry x="-0.0612" relative="1" as="geometry">
            <mxPoint x="445" y="425" as="targetPoint" />
            <Array as="points">
              <mxPoint x="340" y="425" />
              <mxPoint x="394" y="445.21" />
            </Array>
            <mxPoint x="155" y="425" as="sourcePoint" />
            <mxPoint as="offset" />
          </mxGeometry>
        </mxCell>
        <mxCell id="zdNvGmMRSBU-zcqmcYvB-16" value="Opt" style="shape=umlFrame;whiteSpace=wrap;html=1;pointerEvents=0;width=50;height=20;fontFamily=Helvetica;movable=1;resizable=1;rotatable=1;deletable=1;editable=1;locked=0;connectable=1;" vertex="1" parent="1">
          <mxGeometry x="278" y="490" width="392" height="130" as="geometry" />
        </mxCell>
        <mxCell id="zdNvGmMRSBU-zcqmcYvB-17" value="[with a 2% chance]" style="text;html=1;align=center;verticalAlign=middle;resizable=0;points=[];autosize=1;strokeColor=none;fillColor=none;fontFamily=Helvetica;" vertex="1" parent="1">
          <mxGeometry x="278" y="510" width="120" height="30" as="geometry" />
        </mxCell>
        <mxCell id="zdNvGmMRSBU-zcqmcYvB-18" value="&amp;lt;&amp;lt;creates&amp;gt;&amp;gt;" style="html=1;verticalAlign=bottom;endArrow=block;labelBackgroundColor=none;fontFamily=Helvetica;fontSize=12;rounded=0;edgeStyle=elbowEdgeStyle;elbow=vertical;entryX=0;entryY=0.04;entryDx=0;entryDy=0;entryPerimeter=0;" edge="1" parent="1" source="7baba1c4bc27f4b0-10" target="7baba1c4bc27f4b0-3">
          <mxGeometry relative="1" as="geometry">
            <mxPoint x="450" y="570" as="sourcePoint" />
            <mxPoint x="623" y="584" as="targetPoint" />
            <mxPoint as="offset" />
          </mxGeometry>
        </mxCell>
        <mxCell id="zdNvGmMRSBU-zcqmcYvB-19" value="addActor(crab)" style="html=1;verticalAlign=bottom;endArrow=none;labelBackgroundColor=none;fontFamily=Helvetica;fontSize=12;edgeStyle=elbowEdgeStyle;elbow=vertical;startArrow=classic;startFill=1;endFill=0;" edge="1" parent="1" target="7baba1c4bc27f4b0-10">
          <mxGeometry relative="1" as="geometry">
            <mxPoint x="158" y="600" as="sourcePoint" />
            <mxPoint as="offset" />
            <mxPoint x="448" y="600" as="targetPoint" />
            <Array as="points">
              <mxPoint x="373" y="600" />
              <mxPoint x="373" y="610" />
            </Array>
          </mxGeometry>
        </mxCell>
        <mxCell id="zdNvGmMRSBU-zcqmcYvB-20" value="&lt;div&gt;[location is in east side of map]&lt;br&gt;&lt;/div&gt;" style="text;html=1;align=center;verticalAlign=middle;resizable=0;points=[];autosize=1;strokeColor=none;fillColor=none;fontFamily=Helvetica;" vertex="1" parent="1">
          <mxGeometry x="258" y="640" width="190" height="30" as="geometry" />
        </mxCell>
        <mxCell id="zdNvGmMRSBU-zcqmcYvB-22" value="Opt" style="shape=umlFrame;whiteSpace=wrap;html=1;pointerEvents=0;width=50;height=20;fontFamily=Helvetica;movable=1;resizable=1;rotatable=1;deletable=1;editable=1;locked=0;connectable=1;" vertex="1" parent="1">
          <mxGeometry x="278" y="670" width="542" height="135" as="geometry" />
        </mxCell>
        <mxCell id="zdNvGmMRSBU-zcqmcYvB-23" value="[with a 1% chance]" style="text;html=1;align=center;verticalAlign=middle;resizable=0;points=[];autosize=1;strokeColor=none;fillColor=none;fontFamily=Helvetica;" vertex="1" parent="1">
          <mxGeometry x="278" y="690" width="120" height="30" as="geometry" />
        </mxCell>
        <mxCell id="zdNvGmMRSBU-zcqmcYvB-27" value="&amp;lt;&amp;lt;creates&amp;gt;&amp;gt;" style="html=1;verticalAlign=bottom;endArrow=block;labelBackgroundColor=none;fontFamily=Helvetica;fontSize=12;rounded=0;edgeStyle=elbowEdgeStyle;elbow=vertical;entryX=0;entryY=0.04;entryDx=0;entryDy=0;entryPerimeter=0;" edge="1" parent="1">
          <mxGeometry relative="1" as="geometry">
            <mxPoint x="455" y="760.25" as="sourcePoint" />
            <mxPoint x="690" y="760.25" as="targetPoint" />
            <mxPoint as="offset" />
          </mxGeometry>
        </mxCell>
        <mxCell id="zdNvGmMRSBU-zcqmcYvB-29" value="addActor(crayfish)" style="html=1;verticalAlign=bottom;endArrow=none;labelBackgroundColor=none;fontFamily=Helvetica;fontSize=12;edgeStyle=elbowEdgeStyle;elbow=vertical;startArrow=classic;startFill=1;endFill=0;" edge="1" parent="1" target="7baba1c4bc27f4b0-10">
          <mxGeometry relative="1" as="geometry">
            <mxPoint x="153" y="790" as="sourcePoint" />
            <mxPoint as="offset" />
            <mxPoint x="448" y="790" as="targetPoint" />
            <Array as="points">
              <mxPoint x="388" y="790" />
              <mxPoint x="388" y="800" />
            </Array>
          </mxGeometry>
        </mxCell>
        <mxCell id="zdNvGmMRSBU-zcqmcYvB-30" value="spawn_west(location)" style="html=1;verticalAlign=bottom;endArrow=block;labelBackgroundColor=none;fontFamily=Helvetica;fontSize=12;elbow=vertical;edgeStyle=orthogonalEdgeStyle;curved=1;" edge="1" parent="1" source="7baba1c4bc27f4b0-10" target="7baba1c4bc27f4b0-10">
          <mxGeometry x="-0.25" y="5" relative="1" as="geometry">
            <mxPoint x="460" y="540" as="sourcePoint" />
            <mxPoint x="465" y="578" as="targetPoint" />
            <Array as="points">
              <mxPoint x="515" y="510" />
              <mxPoint x="515" y="550" />
            </Array>
            <mxPoint as="offset" />
          </mxGeometry>
        </mxCell>
        <mxCell id="zdNvGmMRSBU-zcqmcYvB-31" value="spawn_east(location)" style="html=1;verticalAlign=bottom;endArrow=block;labelBackgroundColor=none;fontFamily=Helvetica;fontSize=12;elbow=vertical;edgeStyle=orthogonalEdgeStyle;curved=1;" edge="1" parent="1" source="7baba1c4bc27f4b0-10" target="7baba1c4bc27f4b0-10">
          <mxGeometry x="-0.25" y="5" relative="1" as="geometry">
            <mxPoint x="450" y="710" as="sourcePoint" />
            <mxPoint x="448" y="750" as="targetPoint" />
            <Array as="points">
              <mxPoint x="508" y="700" />
              <mxPoint x="508" y="730" />
            </Array>
            <mxPoint as="offset" />
          </mxGeometry>
        </mxCell>
      </root>
    </mxGraphModel>
  </diagram>
</mxfile>
